<svg width="900" height="700" viewBox="0 0 900 700" xmlns="http://www.w3.org/2000/svg" role="img" aria-label="Kitchen &amp; Dining">
  <defs>
    <linearGradient id="g85j2yj" x1="0" y1="0" x2="1" y2="1">
      <stop offset="0" stop-color="#2E4A3E"/>
      <stop offset="1" stop-color="#16241D"/>
    </linearGradient>
    <pattern id="p85j2yj" width="34" height="34" patternUnits="userSpaceOnUse" patternTransform="rotate(20)">
      <line x1="0" y1="0" x2="0" y2="34" stroke="#F7F3EA" stroke-opacity="0.05" stroke-width="34"/>
    </pattern>
  </defs>
  <rect width="900" height="700" fill="url(#g85j2yj)"/>
  <rect width="900" height="700" fill="url(#p85j2yj)"/>
  <g transform="translate(390, 250)" fill="none" stroke="#F7F3EA" stroke-opacity="0.35" stroke-width="3" stroke-linecap="round" stroke-linejoin="round">
    <rect x="18" y="10" width="76" height="98" rx="2" />
        <path d="M18 108h76" />
        <path d="M34 26h10M50 26h10M66 26h10M34 42h10M50 42h10M66 42h10M34 58h10M50 58h10M66 58h10M34 74h10M50 74h10M66 74h10" />
        <rect x="48" y="90" width="16" height="18" />
  </g>
  <text x="450" y="428" text-anchor="middle" font-family="'Plus Jakarta Sans', Arial, sans-serif" font-size="22" font-weight="700" fill="#F7F3EA" fill-opacity="0.92" letter-spacing="0.3">Kitchen &amp; Dining</text>
  <text x="450" y="454" text-anchor="middle" font-family="'Plus Jakarta Sans', Arial, sans-serif" font-size="13" font-weight="500" fill="#F7F3EA" fill-opacity="0.55" letter-spacing="2">PHOTO COMING SOON</text>
</svg>